# xmcd
#
# Track frame offsets:
#	150
#	16600
#	34750
#	47275
#	62225
#	80975
#	93900
#	109400
#	126175
#	144650
#	156950
#	178675
#	197200
#	210850
#	227175
#	242250
#	261175
#	272800
#
# Disc length: 3883 seconds
#
# Revision: 1
# Processed by: cddbd v1.5PL3 Copyright (c) Steve Scherf et al.
# Submitted via: EasyCDDAExtractor 6.5.7.1
#
DISCID=f70f2912
DTITLE=Paola - Ihre Grossen Erfolge
DYEAR=1900
DGENRE=Easy Listening
TTITLE0=Tränen Einer Nacht
TTITLE1=Santa Marguerita
TTITLE2=Was Heut' Nicht Ist
TTITLE3=Wei Man Sich Bettet
TTITLE4=Engel Brauchen Liebe
TTITLE5=Weisse Rosen Aus Athen
TTITLE6=Nah Beim Regenbogen
TTITLE7=Träume Mal Schön Von Hawaii
TTITLE8=Wenn Du Heimkommst
TTITLE9=Ole O'cangaceiro
TTITLE10=Wahrheit Und Liebe
TTITLE11=Die Nacht Der Nächte
TTITLE12=Das Spiel Das Wir Spielen
TTITLE13=Aloha Oe
TTITLE14=Zeig Mir Den Stern Der Liebe
TTITLE15=Ich hab' Ins Paradies Gesehn
TTITLE16=Morgen Bekommst Du Mehr Von Mir
TTITLE17=Zwischen Dir Und Mir
EXTD=
EXTT0=
EXTT1=
EXTT2=
EXTT3=
EXTT4=
EXTT5=
EXTT6=
EXTT7=
EXTT8=
EXTT9=
EXTT10=
EXTT11=
EXTT12=
EXTT13=
EXTT14=
EXTT15=
EXTT16=
EXTT17=
PLAYORDER=
